<svg width="32" height="32" viewBox="0 0 200 200" fill="none" xmlns="http://www.w3.org/2000/svg">
  <rect width="200" height="200" rx="40" fill="#000000"/>
  <defs>
    <radialGradient id="cg" cx="50%" cy="50%" r="50%">
      <stop offset="0%" stop-color="#00FFFF" stop-opacity="0.6"/>
      <stop offset="100%" stop-color="#00FFFF" stop-opacity="0"/>
    </radialGradient>
    <filter id="gl">
      <feGaussianBlur stdDeviation="3" result="b"/>
      <feMerge><feMergeNode in="b"/><feMergeNode in="SourceGraphic"/></feMerge>
    </filter>
  </defs>
  <g transform="rotate(52 100 100)">
    <circle cx="100" cy="100" r="28" fill="url(#cg)"/>
    <circle cx="100" cy="100" r="7" fill="#00FFFF" filter="url(#gl)"/>
    <line x1="100" y1="92" x2="100" y2="45" stroke="white" stroke-width="3" stroke-linecap="round"/>
    <line x1="100" y1="45" x2="86" y2="22" stroke="white" stroke-width="2.5" stroke-linecap="round"/>
    <line x1="100" y1="45" x2="114" y2="22" stroke="white" stroke-width="2.5" stroke-linecap="round"/>
    <line x1="107" y1="95" x2="150" y2="60" stroke="white" stroke-width="3" stroke-linecap="round"/>
    <line x1="150" y1="60" x2="174" y2="54" stroke="white" stroke-width="2.5" stroke-linecap="round"/>
    <line x1="150" y1="60" x2="162" y2="38" stroke="white" stroke-width="2.5" stroke-linecap="round"/>
    <line x1="107" y1="105" x2="150" y2="140" stroke="white" stroke-width="3" stroke-linecap="round"/>
    <line x1="150" y1="140" x2="174" y2="146" stroke="white" stroke-width="2.5" stroke-linecap="round"/>
    <line x1="150" y1="140" x2="162" y2="162" stroke="white" stroke-width="2.5" stroke-linecap="round"/>
    <line x1="100" y1="108" x2="100" y2="155" stroke="white" stroke-width="3" stroke-linecap="round"/>
    <line x1="100" y1="155" x2="86" y2="178" stroke="white" stroke-width="2.5" stroke-linecap="round"/>
    <line x1="100" y1="155" x2="114" y2="178" stroke="white" stroke-width="2.5" stroke-linecap="round"/>
    <line x1="93" y1="105" x2="50" y2="140" stroke="white" stroke-width="3" stroke-linecap="round"/>
    <line x1="50" y1="140" x2="26" y2="146" stroke="white" stroke-width="2.5" stroke-linecap="round"/>
    <line x1="50" y1="140" x2="38" y2="162" stroke="white" stroke-width="2.5" stroke-linecap="round"/>
    <line x1="93" y1="95" x2="50" y2="60" stroke="white" stroke-width="3" stroke-linecap="round"/>
    <line x1="50" y1="60" x2="26" y2="54" stroke="white" stroke-width="2.5" stroke-linecap="round"/>
    <line x1="50" y1="60" x2="38" y2="38" stroke="white" stroke-width="2.5" stroke-linecap="round"/>
    <circle cx="86" cy="22" r="4" fill="#00FFFF"/>
    <circle cx="114" cy="22" r="4" fill="#00FFFF"/>
    <circle cx="174" cy="54" r="4" fill="#00FFFF"/>
    <circle cx="162" cy="38" r="4" fill="#00FFFF"/>
    <circle cx="174" cy="146" r="4" fill="#00FFFF"/>
    <circle cx="162" cy="162" r="4" fill="#00FFFF"/>
    <circle cx="86" cy="178" r="4" fill="#00FFFF"/>
    <circle cx="114" cy="178" r="4" fill="#00FFFF"/>
    <circle cx="26" cy="146" r="4" fill="#00FFFF"/>
    <circle cx="38" cy="162" r="4" fill="#00FFFF"/>
    <circle cx="26" cy="54" r="4" fill="#00FFFF"/>
    <circle cx="38" cy="38" r="4" fill="#00FFFF"/>
  </g>
</svg>
